<svg width="33" height="30" viewBox="0 0 33 30" fill="none" xmlns="http://www.w3.org/2000/svg">
<path d="M20.3436 14.6446C20.1028 14.6446 19.8792 14.5784 19.6806 14.4719V14.4748C19.6806 14.8536 19.5333 15.2094 19.2662 15.4758C18.999 15.743 18.6435 15.8903 18.2651 15.8903C18.0208 15.8903 17.7944 15.8224 17.5936 15.7131C17.5734 16.0597 17.4348 16.3836 17.1877 16.631C16.9205 16.8982 16.565 17.0454 16.1864 17.0454C15.4341 17.0454 14.8232 16.4541 14.7792 15.7129C14.5464 15.8387 14.2832 15.9046 14.0118 15.8872C13.2717 15.8387 12.6922 15.1993 12.6922 14.4312V8.06455L11.9672 9.32051C11.6911 9.80089 11.1742 10.0991 10.6177 10.0991C10.3466 10.0991 10.0787 10.028 9.84139 9.89206C9.54599 9.72078 9.33469 9.44584 9.24679 9.11692C9.15839 8.78779 9.20409 8.44358 9.37499 8.14859C9.37519 8.14859 11.7469 4.04139 11.8916 3.7891C11.9088 3.75117 11.9578 3.64115 11.9995 3.54738C12.0394 3.45785 12.0735 3.36597 12.1063 3.27361C12.8215 1.25433 14.5926 0 16.7285 0C19.5022 0 21.7587 2.4469 21.7587 5.45459L21.7589 13.2289C21.7589 13.6073 21.6119 13.9628 21.345 14.2302C21.0778 14.4974 20.7224 14.6446 20.3436 14.6446ZM16.7285 0.752142C14.8932 0.752142 13.4303 1.7888 12.8152 3.52516C12.7759 3.63542 12.7349 3.74567 12.6871 3.85311C12.5483 4.16434 12.5483 4.16434 12.5092 4.20909L12.504 4.20462C12.3103 4.57003 11.735 5.56637 10.0262 8.52502C9.95599 8.64635 9.93739 8.78725 9.97319 8.922C10.0095 9.05677 10.0964 9.17032 10.2168 9.23982C10.5905 9.45445 11.1022 9.31592 11.3152 8.94486L12.7427 6.47341C12.828 6.32616 13.0004 6.25383 13.1658 6.2986C13.3302 6.34265 13.4445 6.49179 13.4445 6.66189V14.4314C13.4445 14.798 13.7211 15.1144 14.0611 15.1368C14.2571 15.1471 14.4399 15.0814 14.5773 14.9443C14.7021 14.8194 14.7709 14.6531 14.7709 14.4752V9.39385C14.7709 9.18605 14.9394 9.01759 15.1472 9.01759C15.355 9.01759 15.5234 9.18581 15.5234 9.39385L15.5232 15.6302C15.5232 15.9958 15.8208 16.2934 16.1864 16.2934C16.364 16.2934 16.5309 16.2246 16.656 16.0997C16.7808 15.9746 16.8496 15.8078 16.8496 15.6302V9.39384C16.8496 9.18604 17.0178 9.01759 17.2259 9.01759C17.4337 9.01759 17.6021 9.18581 17.6021 9.39384L17.6019 14.4168V14.4752C17.6019 14.8406 17.8994 15.1381 18.2653 15.1381C18.4427 15.1381 18.6091 15.0691 18.7349 14.9438C18.8597 14.8191 18.9285 14.6528 18.9285 14.4749V9.39358C18.9285 9.18578 19.0968 9.01733 19.3048 9.01733C19.5126 9.01733 19.681 9.18554 19.681 9.39358L19.6806 13.2291C19.6806 13.595 19.9781 13.8925 20.3435 13.8925C20.5214 13.8925 20.6877 13.8235 20.8126 13.6989C20.9379 13.5736 21.0065 13.4067 21.0065 13.2291L21.0067 5.45477C21.0067 2.86203 19.0876 0.752142 16.7285 0.752142Z" fill="#4CAF4F"/>
<path d="M5.56096 20.048L11.0207 16.7727C11.679 16.3774 12.526 16.5454 12.9481 17.1553C13.1022 17.3775 13.1809 17.6364 13.1932 17.9001C13.3967 17.7938 13.6182 17.7361 13.8436 17.7361C13.9591 17.7361 14.075 17.7505 14.1895 17.779C14.5563 17.8706 14.8654 18.0999 15.0598 18.424C15.2544 18.7487 15.3112 19.1291 15.2196 19.4955C15.135 19.8346 14.9288 20.1199 14.6421 20.3157C14.8426 20.4339 15.0155 20.5953 15.1385 20.8008C15.3331 21.1254 15.3899 21.5057 15.2985 21.8725C15.2068 22.2389 14.9776 22.548 14.6529 22.7429L14.6511 22.744C14.848 22.8621 15.0179 23.0218 15.1395 23.2242C15.3343 23.5488 15.3911 23.9293 15.2994 24.2961C15.2075 24.6627 14.9783 24.9718 14.6541 25.1664L7.98769 29.1657C6.7435 29.9119 5.30515 30.1694 3.93822 29.8902C2.55904 29.6084 1.41683 28.8157 0.722321 27.6579C-0.37676 25.8261 -0.212045 23.6619 1.15135 22.0101C1.21378 21.9347 1.27527 21.8579 1.33111 21.7783C1.39025 21.6942 1.45928 21.5952 1.48284 21.5613C1.62396 21.3092 3.92672 17.1603 3.92648 17.1608C4.15902 16.7412 4.59487 16.5037 5.04438 16.5039C5.25407 16.5039 5.46681 16.5555 5.66307 16.6644C5.90009 16.7968 6.09917 16.9898 6.23841 17.2223C6.52466 17.6994 6.53479 18.2964 6.26526 18.7796L5.56096 20.048ZM5.59371 17.6091C5.52068 17.4873 5.42031 17.3902 5.29756 17.3214C5.04382 17.181 4.72435 17.2724 4.58466 17.5252C2.93691 20.4937 2.37521 21.5054 2.15845 21.8654L2.16339 21.8666C2.14525 21.9269 2.14525 21.9269 1.94688 22.2103C1.8795 22.3062 1.80623 22.3983 1.73155 22.489C0.559181 23.9094 0.423051 25.6969 1.36707 27.2709C1.95183 28.2458 2.91826 28.9142 4.08846 29.1531C5.27138 29.3937 6.51817 29.1699 7.60031 28.5206L14.2674 24.5211C14.4195 24.4299 14.527 24.285 14.5699 24.1133C14.6127 23.9417 14.5861 23.7634 14.4947 23.6112C14.3067 23.2979 13.8984 23.1949 13.5851 23.3836L10.2961 25.3568C10.118 25.4637 9.88666 25.4062 9.77986 25.2279C9.67296 25.0498 9.73066 24.8187 9.90876 24.7117L13.198 22.7386L14.2662 22.0977C14.4184 22.0063 14.526 21.8614 14.5689 21.6901C14.6118 21.5184 14.5852 21.3398 14.4938 21.1878C14.3055 20.8743 13.8972 20.7723 13.5841 20.9603L9.22666 23.5742C9.04816 23.6814 8.81747 23.6235 8.71051 23.4454C8.60355 23.2673 8.66151 23.0361 8.83938 22.9292L14.1873 19.7211C14.3395 19.6296 14.4469 19.485 14.4898 19.3132C14.5326 19.1417 14.506 18.9634 14.4148 18.8112C14.3237 18.6592 14.1788 18.5518 14.007 18.5089C13.8343 18.466 13.6567 18.4927 13.505 18.5836L12.515 19.1775C12.5153 19.1775 12.5148 19.1775 12.515 19.1775L8.15711 21.7917C7.97853 21.8992 7.74764 21.8412 7.64091 21.6629C7.53396 21.4848 7.59191 21.2536 7.76979 21.1467L12.1272 18.5327C12.2794 18.4413 12.3871 18.2964 12.4299 18.1251C12.4771 17.9371 12.4413 17.7449 12.3296 17.5837C12.1359 17.3036 11.7217 17.2291 11.4077 17.4179L4.74547 21.4146C4.59964 21.5017 4.41281 21.4805 4.29053 21.3625C4.16802 21.2442 4.14045 21.0583 4.22291 20.9097L5.60824 18.4137C5.74725 18.1642 5.7419 17.856 5.59371 17.6091Z" fill="#4CAF4F"/>
<path d="M31.65 27.6577C30.9557 28.8157 29.8138 29.6083 28.4344 29.8901C27.0672 30.1688 25.6293 29.9117 24.3849 29.1656L17.7179 25.1661C17.3935 24.9715 17.164 24.6624 17.0721 24.2953C16.9809 23.9289 17.0379 23.5484 17.2323 23.2243C17.3536 23.0216 17.5237 22.8619 17.7209 22.7439L17.719 22.7427C17.3946 22.5481 17.1652 22.239 17.0738 21.8724C16.9819 21.5058 17.0389 21.125 17.2335 20.8004C17.3588 20.5919 17.5306 20.4289 17.7266 20.3132C17.442 20.1174 17.237 19.8331 17.1527 19.4957C17.0608 19.1288 17.1178 18.7483 17.3124 18.4242C17.5068 18.0997 17.8161 17.8705 18.1827 17.7789C18.2972 17.7501 18.4134 17.736 18.5284 17.736C18.7541 17.7362 18.9755 17.7935 19.1791 17.9C19.1916 17.6363 19.27 17.3774 19.4241 17.1552C19.8465 16.5458 20.6928 16.3771 21.352 16.7726L26.8115 20.0474L26.1078 18.7799C25.8378 18.296 25.8477 17.699 26.134 17.2216C26.2734 16.9893 26.4727 16.7964 26.7109 16.6628C26.9067 16.5544 27.1188 16.5031 27.3279 16.5031C27.7772 16.5033 28.2136 16.7403 28.4458 17.1599C29.2554 18.6185 30.783 21.3694 30.8904 21.5614C30.9132 21.5946 30.9823 21.6936 31.0414 21.7777C31.0977 21.8575 31.1585 21.9339 31.2214 22.0097C32.5846 23.6622 32.749 25.8261 31.65 27.6577ZM30.641 22.4892C30.566 22.3985 30.4925 22.3059 30.4256 22.2105C30.2221 21.9217 30.2169 21.9141 30.2016 21.8385C29.9636 21.4448 29.3831 20.3997 27.7874 17.5249C27.6475 17.2726 27.3294 17.1805 27.0762 17.3204C26.9515 17.3901 26.8514 17.4874 26.7784 17.6093C26.6304 17.8559 26.6247 18.1641 26.7645 18.4143L28.1493 20.9095C28.232 21.0584 28.2044 21.2441 28.0822 21.3623C27.9601 21.4808 27.7735 21.5016 27.627 21.4144L20.9648 17.4177C20.6508 17.2295 20.2368 17.3032 20.0427 17.5836C19.931 17.7447 19.8954 17.937 19.9421 18.1247C19.985 18.2963 20.0926 18.4409 20.2451 18.5323C20.2455 18.5326 20.2458 18.533 20.2462 18.5333L24.6022 21.1465C24.7803 21.2535 24.8381 21.4844 24.7311 21.6627C24.6241 21.8406 24.3935 21.8988 24.2149 21.7916L18.8671 18.5835C18.7153 18.4925 18.5367 18.4657 18.3652 18.5088C18.1932 18.5517 18.0486 18.6591 17.9574 18.8115C17.866 18.9635 17.8396 19.1418 17.882 19.3133C17.9249 19.4849 18.0326 19.6297 18.1848 19.7212L19.2254 20.3453L23.5324 22.9293C23.7105 23.0363 23.7682 23.2672 23.6612 23.4455C23.5543 23.6234 23.3236 23.6814 23.145 23.5744L18.7881 20.9604C18.4748 20.7719 18.0667 20.8742 17.8783 21.188C17.7869 21.3402 17.7605 21.5186 17.8029 21.6901C17.8458 21.8616 17.9534 22.0062 18.1058 22.0979L19.1741 22.7387L22.4627 24.7119C22.6409 24.8188 22.6986 25.0497 22.5916 25.2281C22.4847 25.4059 22.254 25.4644 22.0754 25.3569L18.7867 23.3838C18.635 23.2928 18.4571 23.266 18.2847 23.3091C18.1132 23.352 17.968 23.4594 17.8769 23.6114C17.7857 23.7636 17.7591 23.9421 17.8015 24.1134C17.8443 24.2849 17.952 24.4296 18.1044 24.5212L24.7714 28.5207C25.8533 29.1698 27.101 29.3945 28.2833 29.1533C29.4532 28.9144 30.4197 28.246 31.0044 27.2711C31.9494 25.6968 31.8131 23.9091 30.641 22.4892Z" fill="#4CAF4F"/>
</svg>
